<?xml version="1.0" encoding="utf-8"?>
<svg version="1.1" id="Layer_1"
xmlns="http://www.w3.org/2000/svg"
xmlns:xlink="http://www.w3.org/1999/xlink"
width="442px" height="144px"
xml:space="preserve">
<g id="PathID_67" transform="matrix(1.0831, 0, 0, 1.0831, 72.95, 78.25)" opacity="1">
<path style="fill:#41CCCC;fill-opacity:1" d="M54.35 -21.85Q61.4 0.7 50.45 21.6Q39.55 42.55 17 49.6Q-5.55 56.7 -26.45 45.75Q-47.4 34.85 -54.5 12.3Q-57.5 2.7 -57.05 -7.25Q-56.65 -16.9 -53.05 -25.85Q-57.25 -10.85 -52.6 4.05Q-46.05 24.9 -26.65 35Q-7.3 45.15 13.55 38.6Q34.4 32.05 44.5 12.65Q54.6 -6.7 48.05 -27.55Q43.4 -42.3 31.4 -52.35Q39.45 -47 45.3 -39.35Q51.35 -31.45 54.35 -21.85" />
</g>
<g id="PathID_68" transform="matrix(1.0831, 0, 0, 1.0831, 72.95, 78.25)" opacity="1">
</g>
<g id="PathID_69" transform="matrix(1.0831, 0, 0, 1.0831, 74.9, 67.45)" opacity="1">
<linearGradient
id="LinearGradID_9" gradientUnits="userSpaceOnUse" gradientTransform="matrix(0.0668945, -0.0183868, -0.0183868, -0.0668945, -1.9, 0)" spreadMethod ="pad" x1="-819.2" y1="0" x2="819.2" y2="0" >
<stop  offset="0.235294" style="stop-color:#FFE152;stop-opacity:1" />
<stop  offset="1" style="stop-color:#FFBB0F;stop-opacity:1" />
</linearGradient>
<path style="fill:url(#LinearGradID_9) " d="M25.7 -49.85Q46.35 -38.35 52.75 -15.6Q59.2 7.15 47.7 27.75Q36.2 48.4 13.45 54.8Q-9.3 61.25 -29.9 49.7Q-38.65 44.85 -45.2 37.3Q-51.5 30.05 -55.05 21.05Q-47.9 34.7 -34.2 42.45Q-15.1 53.1 5.9 47.15Q26.95 41.2 37.6 22.1Q48.25 3 42.3 -18Q36.35 -39 17.25 -49.65Q3.55 -57.25 -11.9 -56.25Q-2.35 -57.9 7.1 -56.35Q16.95 -54.75 25.7 -49.85" />
</g>
<g id="PathID_70" transform="matrix(1.0831, 0, 0, 1.0831, 74.9, 67.45)" opacity="1">
</g>
<g id="PathID_71" transform="matrix(1.0831, 0, 0, 1.0831, 64.75, 67.4)" opacity="1">
<linearGradient
id="LinearGradID_10" gradientUnits="userSpaceOnUse" gradientTransform="matrix(0, -0.0651398, -0.0651398, 0, -0.05, 0.05)" spreadMethod ="pad" x1="-819.2" y1="0" x2="819.2" y2="0" >
<stop  offset="0.12549" style="stop-color:#FF0000;stop-opacity:1" />
<stop  offset="0.564706" style="stop-color:#FF0000;stop-opacity:1" />
<stop  offset="0.996078" style="stop-color:#FF0000;stop-opacity:1" />
</linearGradient>
<path style="fill:url(#LinearGradID_10) " d="M52.25 -18.95Q61.65 2.7 53 24.7Q49.3 34.05 42.7 41.5Q36.35 48.7 27.9 53.45Q40.6 44.45 46.35 29.9Q54.4 9.6 45.7 -10.45Q37 -30.5 16.65 -38.55Q-3.65 -46.55 -23.7 -37.85Q-43.7 -29.2 -51.75 -8.85Q-57.5 5.65 -54.4 20.95Q-57.35 11.7 -57.05 2.1Q-56.8 -7.85 -53.1 -17.2Q-44.4 -39.15 -22.75 -48.55Q-1.1 -57.95 20.9 -49.3Q42.85 -40.6 52.25 -18.95" />
</g>
<g id="PathID_72" transform="matrix(1.0831, 0, 0, 1.0831, 64.75, 67.4)" opacity="1">
</g>
<g id="PathID_73" transform="matrix(1.0831, 0, 0, 1.0831, 70.45, 71.45)" opacity="1">
<path style="fill:#454545;fill-opacity:1" d="M1.35 15.1Q-21.15 27.5 -22.25 26.85Q-23.8 25.95 -23.85 0Q-23.95 -26 -22.25 -26.85Q-20.6 -27.65 1.75 -13.9Q24 -0.15 23.9 1.2Q23.85 2.65 1.35 15.1" />
</g>
<g id="PathID_74" transform="matrix(1.0831, 0, 0, 1.0831, 70.45, 71.45)" opacity="1">
</g>
<g id="PathID_75" transform="matrix(1.0831, 0, 0, 1.0831, 69.2, 70.5)" opacity="1">
<linearGradient
id="LinearGradID_11" gradientUnits="userSpaceOnUse" gradientTransform="matrix(0.00511169, -0.0290222, -0.0290222, -0.00511169, -1.95, 3.2)" spreadMethod ="pad" x1="-819.2" y1="0" x2="819.2" y2="0" >
<stop  offset="0.639216" style="stop-color:#454545;stop-opacity:1" />
<stop  offset="1" style="stop-color:#FAFAFA;stop-opacity:1" />
</linearGradient>
<path style="fill:url(#LinearGradID_11) " d="M1.25 13.8Q-19.2 25.1 -20.25 24.5Q-21.65 23.7 -21.75 0.05Q-21.8 -23.7 -20.25 -24.45Q-18.75 -25.2 1.6 -12.65Q21.9 -0.15 21.8 1.15Q21.75 2.45 1.25 13.8" />
</g>
<g id="PathID_76" transform="matrix(1.0831, 0, 0, 1.0831, 69.2, 70.5)" opacity="1">
</g>
<g id="PathID_77" transform="matrix(1.0831, 0, 0, 1.0831, 69, 58.9)" opacity="1">
<linearGradient
id="LinearGradID_12" gradientUnits="userSpaceOnUse" gradientTransform="matrix(0.00511169, -0.0290222, -0.0290222, -0.00511169, -2, 13.7)" spreadMethod ="pad" x1="-819.2" y1="0" x2="819.2" y2="0" >
<stop  offset="0" style="stop-color:#A2A2A2;stop-opacity:1" />
<stop  offset="0.619608" style="stop-color:#727272;stop-opacity:1" />
<stop  offset="1" style="stop-color:#FAFAFA;stop-opacity:1" />
</linearGradient>
<path style="fill:url(#LinearGradID_12) " d="M1.35 13.7Q-11.45 12.45 -21.75 6.9Q-21.65 -13.3 -20.3 -13.95Q-18.8 -14.75 1.55 -2.15Q21.85 10.35 21.75 11.6L20.45 12.85Q11.2 14.75 1.35 13.7" />
</g>
<g id="PathID_78" transform="matrix(1.0831, 0, 0, 1.0831, 69, 58.9)" opacity="1">
</g>
<g id="PathID_79" transform="matrix(1.0831, 0, 0, 1.0831, 99.55, 31.35)" opacity="0.3">
<path style="fill:#FFFFFF;fill-opacity:1" d="M25.5 14.25L24.9 18.35L23.2 22.45Q20.05 11 14 1.65Q6.3 -10.15 -4.7 -16.05Q-14.7 -21.4 -25.55 -22.4L-21.45 -22.2L-17.3 -21.75Q-8.3 -20.9 0.05 -17.65L3.6 -15.8Q16.15 -8.8 23.8 3.15Q26.1 8.75 25.5 14.25" />
</g>
<g id="PathID_80" transform="matrix(1.0831, 0, 0, 1.0831, 99.55, 31.35)" opacity="0.3">
</g>
<g id="PathID_81" transform="matrix(1.0831, 0, 0, 1.0831, 76.2, 36.45)" opacity="0.3">
<path style="fill:#FFFFFF;fill-opacity:1" d="M37.65 25.05Q34.45 13.15 26.35 3.95Q18 -5.6 6.1 -10.3Q-6.75 -15.4 -20.4 -13.5Q-33.55 -11.7 -44.35 -3.85Q-42.85 -9.7 -38.3 -14.55Q-33.9 -19.3 -27.15 -22.55Q-18.05 -25.35 -8.6 -25Q1.2 -24.7 10.35 -21.05Q23.1 -16 32.15 -5.8Q40.85 4.05 44.4 16.8Q42.05 21.25 37.65 25.05" />
</g>
<g id="PathID_82" transform="matrix(1.0831, 0, 0, 1.0831, 76.2, 36.45)" opacity="0.3">
</g>
<g id="PathID_83" transform="matrix(1.40548, 0, 0, 1.40548, 147.9, 92.55)" opacity="1">
<path style="fill:#7C6C6C;fill-opacity:1" d="M13.45 -33.1Q13.3 -32.15 11.75 -26.15Q11.05 -23.3 10.8 -21.4L10.45 -18.55Q9.45 -12.15 9.45 -9.8Q9.45 -6.3 9.85 -2.9Q10.1 -0.9 9.15 0Q8.2 0.85 7.25 0.85Q5.9 0.85 5.35 -0.65Q4.85 -2.2 4.85 -5.55Q4.85 -9.1 5.85 -15.3L6.25 -18.15L6.45 -19.9Q6.6 -20.75 6.65 -21.65Q6.8 -23.95 7.55 -27.7Q8.1 -30.55 8.35 -32.7Q8.55 -34.2 8.75 -34.7Q9 -35.25 9.9 -35.85Q10.85 -36.5 11.35 -36.5Q12.4 -36.5 12.9 -35.45Q13.45 -34.45 13.45 -33.1" />
</g>
<g id="PathID_84" transform="matrix(1.40548, 0, 0, 1.40548, 147.9, 92.55)" opacity="1">
</g>
<g id="PathID_85" transform="matrix(1.40548, 0, 0, 1.40548, 167.7, 92.55)" opacity="1">
<path style="fill:#7C6C6C;fill-opacity:1" d="M1 -30.4Q0.7 -30.9 0.7 -31.65Q0.7 -32.75 1.5 -33.15Q2.35 -33.55 6.4 -33.6Q11.35 -33.65 15.3 -33.95Q19.3 -34.3 27.55 -35.45Q30.65 -35.85 33.5 -35.85Q34.9 -35.85 36.2 -35.65Q37.5 -35.5 38 -35.35Q38.55 -35.2 38.85 -34.45Q39.2 -33.7 39.2 -33.3Q39.2 -31.55 37.95 -31.55Q37.15 -31.55 35.7 -31.7Q34.25 -31.8 31.8 -31.8Q29.25 -31.8 25.6 -31.45Q21.95 -31.1 21.55 -30.25Q21.15 -29.45 20.25 -20.5Q19.35 -11.6 19.35 -7.2Q19.35 -5.2 19.95 -2.55L20.05 -1.95Q20.05 -0.85 19.45 0.05Q18.85 0.95 18 0.95Q16.7 0.95 15.85 -0.3Q15 -1.55 15 -7.3Q15 -12.75 17.05 -28.6L17.15 -29.45Q17.15 -30.3 16.25 -30.3Q14.75 -30.3 10.5 -29.95Q6.3 -29.55 4.5 -29.55Q1.8 -29.55 1 -30.4" />
</g>
<g id="PathID_86" transform="matrix(1.40548, 0, 0, 1.40548, 167.7, 92.55)" opacity="1">
</g>
<g id="PathID_87" transform="matrix(1.40548, 0, 0, 1.40548, 213, 92.55)" opacity="1">
<path style="fill:#7C6C6C;fill-opacity:1" d="M16.1 -16.25L17.95 -16.25Q22.6 -16.25 24.85 -16.6Q25.95 -16.75 27.05 -16.75Q27.55 -16.75 29 -16.15Q30.45 -15.6 30.7 -15.2Q31 -14.8 31 -14.15Q31 -13.25 30.6 -12.85Q30.25 -12.5 29 -12.5Q28.45 -12.5 27.45 -12.8Q26.45 -13.15 25.8 -13.15L23.95 -13Q23.15 -12.95 20.95 -13.15Q19.3 -13.3 18.45 -13.3L15 -13.15Q12.65 -13 11.45 -13Q10.25 -13 9.5 -13.25Q8.8 -13.5 8.8 -14.45Q8.8 -14.85 9.1 -15.35Q9.45 -15.9 11.4 -16.2Q13.35 -16.55 14.2 -16.55L16.1 -16.25" />
</g>
<g id="PathID_88" transform="matrix(1.40548, 0, 0, 1.40548, 213, 92.55)" opacity="1">
</g>
<g id="PathID_89" transform="matrix(1.40548, 0, 0, 1.40548, 256, 92.55)" opacity="1">
<path style="fill:#7C6C6C;fill-opacity:1" d="M12.75 -30.45Q12.3 -29.6 11.4 -25Q10.5 -20.4 10.5 -17.25Q12.2 -17.55 14.05 -17.75L19.3 -18.35Q20.55 -18.5 22.8 -19.1Q25.05 -19.7 25.9 -19.7Q28.85 -19.7 28.85 -17.3Q28.85 -16.85 28 -16.1Q27.15 -15.4 25.75 -15.1Q24.4 -14.8 19.1 -14.2Q12.6 -13.45 11.35 -13.05Q10.15 -12.7 9.9 -12.3Q9.7 -11.9 9.45 -8.65Q9.2 -5.45 9.2 -3.4L9.3 -0.3Q9.3 2.25 7.45 2.25Q6.3 2.25 5.3 1.35Q4.35 0.5 4.35 -1Q4.35 -6.8 7.2 -25.45L7.9 -30.1Q7.9 -30.6 7.6 -31.55Q7.2 -32.8 7.2 -33.25Q7.2 -33.95 7.95 -34.7Q8.7 -35.5 9.35 -35.5L12.65 -35.15Q14.2 -35.15 18.35 -35.65Q25.4 -36.5 28 -36.5Q30.3 -36.5 31.3 -35.8Q32.3 -35.1 32.3 -34.4Q32.3 -33.2 31.5 -32.35Q30.7 -31.5 29.75 -31.5L28.85 -31.6Q26.1 -32.05 24.7 -32.05Q22 -32.05 17.75 -31.55Q13.5 -31.05 12.75 -30.45" />
</g>
<g id="PathID_90" transform="matrix(1.40548, 0, 0, 1.40548, 256, 92.55)" opacity="1">
</g>
<g id="PathID_91" transform="matrix(1.40548, 0, 0, 1.40548, 295.6, 92.55)" opacity="1">
<path style="fill:#7C6C6C;fill-opacity:1" d="M11.35 -33.45Q10.85 -33.45 10.55 -34.6L10.3 -35.35Q9.6 -37 9.6 -38.2Q9.6 -39.2 10.8 -40.2Q12 -41.25 13.45 -41.25Q14.15 -41.25 15.05 -40.7Q15.95 -40.15 15.95 -39.6Q15.95 -38.8 15.35 -36.8Q14.75 -34.85 13.4 -34.15Q12.05 -33.45 11.35 -33.45M8.1 -5.55Q8.1 -3.65 8.6 -1.25L8.7 -0.5Q8.7 -0.05 7.85 0.65Q7.05 1.35 6.15 1.35Q3.7 1.35 3.7 -3.1Q3.7 -7.7 5.6 -17.65Q6.25 -21.1 6.25 -21.9Q6.25 -23.5 6.8 -24.6Q7.4 -25.7 8.45 -25.7Q9.75 -25.7 10.45 -25.1Q11.2 -24.5 11.2 -23.75Q11.2 -23 10.85 -21.75Q9 -15.15 8.55 -12.3Q8.1 -9.45 8.1 -5.55" />
</g>
<g id="PathID_92" transform="matrix(1.40548, 0, 0, 1.40548, 295.6, 92.55)" opacity="1">
</g>
<g id="PathID_93" transform="matrix(1.40548, 0, 0, 1.40548, 313.3, 92.55)" opacity="1">
<path style="fill:#7C6C6C;fill-opacity:1" d="M12.05 -42.3Q13.85 -42.3 13.85 -40Q13.85 -37.95 11.7 -30.25Q10.3 -25.4 9.55 -19.55Q8.8 -13.7 8.8 -10.4Q8.8 -6.25 9.35 -2.2L9.45 -1.05Q9.45 0.2 8.6 1.1Q7.75 2 6.8 2Q5.45 2 4.95 0.35Q4.45 -1.3 4.45 -5Q4.45 -13.35 6.45 -25.7Q8.45 -38.1 9.65 -40.2Q10.85 -42.3 12.05 -42.3" />
</g>
<g id="PathID_94" transform="matrix(1.40548, 0, 0, 1.40548, 313.3, 92.55)" opacity="1">
</g>
<g id="PathID_95" transform="matrix(1.40548, 0, 0, 1.40548, 330.8, 92.55)" opacity="1">
<path style="fill:#7C6C6C;fill-opacity:1" d="M22.2 -19.75Q19.85 -19.7 12.25 -6Q9.65 -1.35 9.2 -0.95Q8.8 -0.55 7.65 -0.2Q6.55 0.1 5.8 0.1Q4.1 0.1 4.1 -6.4Q4.1 -10.1 5.7 -19.7Q6.35 -23.6 6.35 -25.3Q6.35 -26.95 7.8 -26.95Q10.6 -26.95 10.6 -22.95Q10.6 -21.05 9.65 -15.6Q8.6 -9.35 8.55 -8Q10.1 -9.5 13.1 -14.55Q17.35 -21.5 19.35 -23.35Q21.4 -25.25 23.55 -25.25Q25.15 -25.25 26.1 -23.05Q27.1 -20.9 27.3 -12.7Q27.35 -10.65 27.65 -9.65Q28 -8.65 28.15 -8.65Q29.3 -8.65 33.25 -16.65Q35.35 -20.85 37.3 -23.05Q39.3 -25.25 41.75 -25.25Q43.75 -25.25 44.65 -23.15Q45.6 -21.1 46 -17Q46.4 -12.85 47.15 -9.4Q47.95 -5.95 50.05 -4.95Q51.5 -4.3 51.5 -3.4Q51.5 -2.5 50.3 -1.55Q49.1 -0.65 48.1 -0.65Q46.1 -0.65 44.5 -3.1Q42.95 -5.55 42.15 -13.7Q41.8 -17 41.45 -18.35Q41.15 -19.75 40.45 -19.75Q39.4 -19.75 37.95 -17.75Q36.5 -15.75 33.3 -9.6Q30.8 -4.85 29.5 -3.25Q28.25 -1.65 27.05 -1.65Q25.95 -1.65 25.1 -2.5Q24.25 -3.4 24 -4.6Q23.8 -5.8 23.55 -10.55Q23.2 -18.45 22.2 -19.75" />
</g>
<g id="PathID_96" transform="matrix(1.40548, 0, 0, 1.40548, 330.8, 92.55)" opacity="1">
</g>
<g id="PathID_97" transform="matrix(1.40548, 0, 0, 1.40548, 401.75, 92.55)" opacity="1">
<path style="fill:#7C6C6C;fill-opacity:1" d="M15.9 -5.7Q15.9 -7.35 11.9 -9.4Q6.8 -12 5 -13.55Q3.25 -15.15 3.25 -17.05Q3.25 -22.05 8.2 -25.3Q13.2 -28.6 16.35 -28.6Q18.4 -28.6 19.3 -27.9Q20.2 -27.2 20.2 -25.45Q20.2 -24.7 19.55 -24.15Q18.9 -23.6 18.5 -23.6Q18.25 -23.6 17.45 -23.95Q16.65 -24.3 16.4 -24.3Q15.15 -24.3 11.3 -22.45Q7.5 -20.65 7.5 -18.35Q7.5 -16.95 8.85 -15.8Q10.2 -14.7 13.7 -13.05Q16.5 -11.7 18.2 -10.15Q19.9 -8.6 19.9 -6.55Q19.9 -2.7 14.6 -0.55Q9.35 1.6 4.55 1.6Q0.5 1.6 0.5 -1.15Q0.5 -2.1 1.4 -2.55Q2.3 -3 3.25 -3Q3.6 -3 4.65 -2.75Q5.7 -2.5 6 -2.5Q8.8 -2.5 11.95 -3.4Q15.15 -4.35 15.9 -5.7" />
</g>
<g id="PathID_98" transform="matrix(1.40548, 0, 0, 1.40548, 401.75, 92.55)" opacity="1">
</g>
<g id="PathID_99" transform="matrix(0.446945, 0, 0, 0.446945, 193.6, 91.3)" opacity="1">
<path style="fill:#7C6C6C;fill-opacity:1" d="M118 27.4L118 27.3Q128.1 35.55 138.9 51.45Q150.45 68.6 150 76.8Q149.85 86.1 144.75 90.95Q139.95 95.9 128.1 98.15Q118 100.1 104.2 96.65Q99.25 95.3 92.1 92.75Q87.05 90.95 80.95 88.4L80.95 88.5Q64.15 81.5 20.1 57.2L14.7 53.55L14.55 53.4L13.2 52.05L12.6 51L12.35 47.4L11.9 46.65L11.6 42.9L11.6 42.6L11.7 41.65Q15.35 33.4 21.8 27.15Q20.45 26.7 19.25 25.9Q14.55 23.25 13.2 17.05Q11.7 10.6 6.3 6.35L2 3.8L1.2 3.25Q-0.3 2.65 0.05 1.15Q0.3 -0.35 2 0.1L2.15 0.1L8.25 3.7Q14.55 8.5 16.55 16.35Q17.55 21.3 20.75 23.05Q22.7 24.3 24.95 23.95Q30.35 19.15 37.7 15.4Q45.2 11.5 51.65 10L52.4 9.8L53.2 9.7L54.25 9.25L54.7 9.25L60.25 9.25L64.85 8.75Q76.7 8.95 90.95 12.7Q91.3 12.7 91.6 13L92.1 13.15L94.9 14.05L95.2 14.05Q106.75 18.1 118 27.4M86.35 15.4Q74.75 12.9 65.05 12.7L59.45 13L55.15 13L54.95 13L54.25 13Q53.35 12.9 48.95 14.85Q47.15 15.4 45.2 16.35Q44.45 16.45 44.15 16.7Q60.1 17.05 66.35 20.05Q71.3 22.9 68.5 25.8Q65.5 28.9 45.2 28.9L30.45 28.2L27.45 27.85Q23.55 31.3 21 34.05L21 34.2Q18.35 37.65 15.6 42.9L15.8 44.65L15.95 44.65L23.75 46.05Q34.35 48.3 44 52.8Q45.65 49.15 51.05 45.25Q60.25 38.8 86.2 15.55L86.35 15.4M115.2 94.95Q111.9 94.4 109 93.35Q104.5 91.95 96.55 87.95Q95.55 87.5 92.1 85.25L74.5 74Q55.4 61.95 45.85 57.2L45.5 57.45L44.35 57.2Q34.35 52.35 23.15 49.95L16.55 48.9L16.55 49.95L17.1 50.4Q18.95 52.05 22.05 54Q65.65 78.15 82.45 84.95Q87.7 87.2 92.1 88.85Q99.7 91.7 105.1 93Q110.4 94.4 115.2 94.95" />
</g>
<g id="PathID_100" transform="matrix(0.446945, 0, 0, 0.446945, 193.6, 91.3)" opacity="1">
</g>
</svg>
