<?xml version="1.0" encoding="UTF-8" standalone="no"?>
<!-- Created with Inkscape (http://www.inkscape.org/) -->

<svg
   xmlns:dc="http://purl.org/dc/elements/1.1/"
   xmlns:cc="http://creativecommons.org/ns#"
   xmlns:rdf="http://www.w3.org/1999/02/22-rdf-syntax-ns#"
   xmlns:svg="http://www.w3.org/2000/svg"
   xmlns="http://www.w3.org/2000/svg"
   xmlns:sodipodi="http://sodipodi.sourceforge.net/DTD/sodipodi-0.dtd"
   xmlns:inkscape="http://www.inkscape.org/namespaces/inkscape"
   width="210mm"
   height="297mm"
   viewBox="0 0 210 297"
   version="1.1"
   id="svg8"
   inkscape:version="0.92.1 r15371"
   sodipodi:docname="logo_proposal.svg">
  <defs
     id="defs2" />
  <sodipodi:namedview
     id="base"
     pagecolor="#ffffff"
     bordercolor="#666666"
     borderopacity="1.0"
     inkscape:pageopacity="0.0"
     inkscape:pageshadow="2"
     inkscape:zoom="0.35"
     inkscape:cx="150.25872"
     inkscape:cy="711.36793"
     inkscape:document-units="mm"
     inkscape:current-layer="layer1"
     showgrid="false"
     inkscape:window-width="1304"
     inkscape:window-height="745"
     inkscape:window-x="54"
     inkscape:window-y="-8"
     inkscape:window-maximized="1"
     showguides="true"
     inkscape:guide-bbox="true" />
  <metadata
     id="metadata5">
    <rdf:RDF>
      <cc:Work
         rdf:about="">
        <dc:format>image/svg+xml</dc:format>
        <dc:type
           rdf:resource="http://purl.org/dc/dcmitype/StillImage" />
        <dc:title></dc:title>
      </cc:Work>
    </rdf:RDF>
  </metadata>
  <g
     inkscape:label="Capa 1"
     inkscape:groupmode="layer"
     id="layer1">
    <path
       style="opacity:1;fill:#28170b;fill-opacity:1;stroke:#ffffff;stroke-width:0;stroke-linecap:round;stroke-linejoin:round;stroke-miterlimit:4;stroke-dasharray:none;stroke-dashoffset:0;stroke-opacity:1;paint-order:normal"
       d="m 73.462393,27.260354 c -1.058834,0 -1.911133,0.838836 -1.911133,1.880193 V 97.43632 c 0,1.04135 0.852299,1.87958 1.911133,1.87958 h 72.235637 c 1.05885,0 1.91114,-0.83823 1.91114,-1.87958 V 29.140547 c 0,-1.041357 -0.85229,-1.880193 -1.91114,-1.880193 z m 61.723487,2.97657 h 7.32674 c 1.14705,0 2.07002,0.908338 2.07002,2.036472 v 1.87959 c 0,1.128137 -0.92297,2.036475 -2.07002,2.036475 h -7.32674 c -1.14707,0 -2.07065,-0.908338 -2.07065,-2.036475 v -1.87959 c 0,-1.128134 0.92358,-2.036472 2.07065,-2.036472 z m 0,9.904944 h 7.32674 c 1.14705,0 2.07002,0.908337 2.07002,2.036472 v 1.87959 c 0,1.128135 -0.92297,2.036475 -2.07002,2.036475 h -7.32674 c -1.14707,0 -2.07065,-0.90834 -2.07065,-2.036475 v -1.87959 c 0,-1.128135 0.92358,-2.036472 2.07065,-2.036472 z m 0,9.905548 h 7.32674 c 1.14705,0 2.07002,0.908338 2.07002,2.036474 v 1.879587 c 0,1.128141 -0.92297,2.036475 -2.07002,2.036475 h -7.32674 c -1.14707,0 -2.07065,-0.908334 -2.07065,-2.036475 V 52.08389 c 0,-1.128136 0.92358,-2.036474 2.07065,-2.036474 z m 0,9.904946 h 7.32674 c 1.14705,0 2.07002,0.908333 2.07002,2.036472 v 1.879586 c 0,1.12815 -0.92297,2.03648 -2.07002,2.03648 h -7.32674 c -1.14707,0 -2.07065,-0.90833 -2.07065,-2.03648 v -1.879586 c 0,-1.128139 0.92358,-2.036472 2.07065,-2.036472 z m 0,9.905548 h 7.32674 c 1.14705,0 2.07002,0.90772 2.07002,2.03586 v 1.8802 c 0,1.12812 -0.92297,2.03586 -2.07002,2.03586 h -7.32674 c -1.14707,0 -2.07065,-0.90774 -2.07065,-2.03586 v -1.8802 c 0,-1.12814 0.92358,-2.03586 2.07065,-2.03586 z m 0,9.90493 h 7.32674 c 1.14705,0 2.07002,0.90834 2.07002,2.03648 v 1.87959 c 0,1.12813 -0.92297,2.03647 -2.07002,2.03647 h -7.32674 c -1.14707,0 -2.07065,-0.90834 -2.07065,-2.03647 v -1.87959 c 0,-1.12814 0.92358,-2.03648 2.07065,-2.03648 z m 0,9.90554 h 7.32674 c 1.14705,0 2.07002,0.90774 2.07002,2.03589 v 1.88018 c 0,1.12813 -0.92297,2.03587 -2.07002,2.03587 h -7.32674 c -1.14707,0 -2.07065,-0.90774 -2.07065,-2.03587 v -1.88018 c 0,-1.12815 0.92358,-2.03589 2.07065,-2.03589 z"
       id="rect4499"
       inkscape:connector-curvature="0"
       inkscape:export-xdpi="96"
       inkscape:export-ydpi="96" />
    <text
       xml:space="preserve"
       style="font-style:normal;font-weight:normal;font-size:10.58333302px;line-height:1.25;font-family:sans-serif;letter-spacing:0px;word-spacing:0px;fill:#000000;fill-opacity:1;stroke:none;stroke-width:0.26458332"
       x="75.434738"
       y="96.327057"
       id="text4685"
       inkscape:export-xdpi="96"
       inkscape:export-ydpi="96"><tspan
         sodipodi:role="line"
         id="tspan4683"
         x="75.434738"
         y="96.327057"
         style="font-style:normal;font-variant:normal;font-weight:normal;font-stretch:normal;font-size:50.79999924px;font-family:'Showcard Gothic';-inkscape-font-specification:'Showcard Gothic';letter-spacing:3.64860439px;word-spacing:0px;fill:#ffffff;stroke-width:0.26458332"
         dx="0">IT</tspan></text>
    <text
       xml:space="preserve"
       style="font-style:normal;font-weight:normal;font-size:24.64666176px;line-height:1.25;font-family:sans-serif;letter-spacing:0px;word-spacing:0px;fill:#28170b;fill-opacity:1;stroke:none;stroke-width:0.26458332"
       x="52.36697"
       y="151.55734"
       id="text4689"
       transform="scale(1.3590299,0.73581899)"
       inkscape:export-xdpi="96"
       inkscape:export-ydpi="96"><tspan
         sodipodi:role="line"
         id="tspan4687"
         x="52.36697"
         y="151.55734"
         style="font-style:normal;font-variant:normal;font-weight:normal;font-stretch:normal;font-family:'Tw Cen MT';-inkscape-font-specification:'Tw Cen MT';fill:#28170b;stroke-width:0.26458332">FILMS</tspan></text>
    <g
       id="g4721"
       transform="translate(11.427064,-31.48273)"
       inkscape:export-xdpi="96"
       inkscape:export-ydpi="96">
      <g
         id="g4733">
        <path
           style="opacity:1;fill:#ffffff;fill-opacity:1;stroke:#ffffff;stroke-width:0;stroke-linecap:round;stroke-linejoin:round;stroke-miterlimit:4;stroke-dasharray:none;stroke-dashoffset:0;stroke-opacity:1;paint-order:normal"
           id="path4702"
           sodipodi:type="arc"
           sodipodi:cx="75.369995"
           sodipodi:cy="74.364479"
           sodipodi:rx="2.6726952"
           sodipodi:ry="2.6726952"
           sodipodi:start="0.0042354778"
           sodipodi:end="0"
           sodipodi:open="true"
           d="m 78.042666,74.375799 a 2.6726952,2.6726952 0 0 1 -2.681161,2.661362 2.6726952,2.6726952 0 0 1 -2.664199,-2.678342 2.6726952,2.6726952 0 0 1 2.675519,-2.667034 2.6726952,2.6726952 0 0 1 2.669865,2.672694" />
        <g
           id="g4727">
          <path
             inkscape:connector-curvature="0"
             id="path4710"
             d="m 75.236371,79.30897 v 8.686257 l 8.95353,0.133637 1.469983,10.557146"
             style="fill:none;stroke:#ffffff;stroke-width:2.66499996;stroke-linecap:round;stroke-linejoin:miter;stroke-miterlimit:4;stroke-dasharray:none;stroke-opacity:1" />
          <path
             sodipodi:nodetypes="ccc"
             inkscape:connector-curvature="0"
             id="path4714"
             d="m 75.236371,80.89647 4.276312,3.223349 5.593667,-0.133633"
             style="fill:none;stroke:#ffffff;stroke-width:2.06500006;stroke-linecap:round;stroke-linejoin:miter;stroke-miterlimit:4;stroke-dasharray:none;stroke-opacity:1" />
        </g>
      </g>
      <path
         style="fill:none;stroke:#ffffff;stroke-width:2.66499996;stroke-linecap:round;stroke-linejoin:miter;stroke-miterlimit:4;stroke-dasharray:none;stroke-opacity:1"
         d="m 89.681567,86.766956 h 10.961313 l 5.85863,-9.260416"
         id="path4723"
         inkscape:connector-curvature="0" />
    </g>
  </g>
</svg>
